<svg width="500" height="500" viewBox="0 0 500 500" fill="none" xmlns="http://www.w3.org/2000/svg">
<path d="M370.195 213.665L262.117 105.767C259.034 102.689 254.921 101 250.448 101C246.063 101 241.952 102.689 238.87 105.767L130.788 213.665C124.404 220.041 124.404 230.418 130.788 236.79L140.601 246.591C143.684 249.666 147.797 251.358 152.185 251.358C156.57 251.358 160.824 249.666 163.904 246.591L227.097 183.641V383.633C227.097 392.647 234.168 400 243.197 400H257.076C266.105 400 273.892 392.647 273.892 383.633V182.931L337.443 246.591C340.523 249.666 344.526 251.358 348.914 251.358C353.302 251.358 357.353 249.666 360.438 246.591L370.222 236.79C376.609 230.416 376.585 220.041 370.195 213.665Z" fill="#e6e6e6"/>
</svg>
