<svg width="512" height="512" viewBox="0 0 512 512" fill="none" xmlns="http://www.w3.org/2000/svg">
<path d="M424.385 20.69C401.182 6.768 376.445 0 348.761 0C315.639 0 283.126 9.753 251.684 19.185C220.968 28.399 191.955 37.102 163.238 37.104C163.234 37.104 163.231 37.104 163.227 37.104C144.028 37.104 126.644 33.04 110.333 24.722V15C110.333 6.716 103.617 0 95.333 0C87.049 0 80.333 6.716 80.333 15V33.551V237.447V497C80.333 505.284 87.049 512 95.333 512C103.617 512 110.333 505.284 110.333 497V261.453C126.9 267.853 144.385 271 163.239 271C196.36 271 228.87 261.247 260.31 251.815C291.028 242.6 320.043 233.896 348.761 233.896C370.853 233.896 390.54 239.265 408.949 250.311C413.582 253.091 419.353 253.165 424.057 250.502C428.76 247.839 431.666 242.853 431.666 237.449V33.552C431.667 28.283 428.903 23.4 424.385 20.69ZM251.691 223.081C220.972 232.296 191.957 241 163.24 241C144.034 241 126.646 236.942 110.334 228.624V57.566C126.898 63.965 144.38 67.105 163.228 67.104C163.231 67.104 163.238 67.104 163.242 67.104C196.36 67.102 228.868 57.35 260.305 47.919C291.024 38.704 320.042 30 348.761 30C367.967 30 385.355 34.058 401.666 42.375V213.435C385.1 207.035 367.614 203.896 348.761 203.896C315.641 203.896 283.13 213.649 251.691 223.081Z" fill="black"/>
</svg>
