<svg width="512" height="512" viewBox="0 0 512 512" fill="none" xmlns="http://www.w3.org/2000/svg">
<path d="M403.921 0V31.347H439.281L370.299 96.756C345.878 71.766 311.825 56.226 274.207 56.226C223.604 56.226 179.448 84.338 156.52 125.761C154.556 125.675 152.582 125.623 150.596 125.623C76.478 125.623 16.179 185.922 16.179 260.041C16.179 328.857 68.163 385.751 134.922 393.539V435.196H87.995V466.543H134.924V512H166.271V466.542H215.248V435.195H166.271V393.538C210.219 388.411 247.759 362.005 268.284 324.922C270.248 325.008 272.221 325.06 274.206 325.06C348.325 325.06 408.624 264.761 408.624 190.643C408.624 165.456 401.655 141.869 389.553 121.699L464.472 50.661V89.594H495.819V0H403.921ZM150.598 363.11C93.765 363.11 47.528 316.873 47.528 260.039C47.528 205.42 90.233 160.597 144.005 157.186C141.254 167.886 139.79 179.096 139.79 190.643C139.79 251.107 179.922 302.369 234.947 319.205C216.281 345.738 185.432 363.11 150.598 363.11ZM249.044 290.6C204.335 279.34 171.138 238.798 171.138 190.643C171.138 180.007 172.758 169.742 175.763 160.082C220.472 171.342 253.669 211.885 253.669 260.04C253.669 270.676 252.048 280.94 249.044 290.6ZM280.801 293.495C283.552 282.795 285.016 271.586 285.016 260.039C285.016 199.575 244.884 148.313 189.86 131.476C208.526 104.944 239.376 87.571 274.209 87.571C331.043 87.571 377.28 133.808 377.28 190.642C377.278 245.261 334.573 290.085 280.801 293.495Z" fill="black"/>
</svg>
