<svg width="480" height="480" viewBox="0 0 480 480" fill="none" xmlns="http://www.w3.org/2000/svg">
<path d="M408 32C388.911 32.0212 370.61 39.6137 357.112 53.1117C343.614 66.6097 336.021 84.9109 336 104C336.463 117.832 340.99 131.221 349.016 142.496C331.2 156.219 315.184 172.131 301.344 189.856C289.469 184.372 276.907 180.519 264 178.4V141.888C278.142 136.478 290.306 126.896 298.878 114.415C307.45 101.934 312.027 87.1416 312 72C312 52.9044 304.414 34.5909 290.912 21.0883C277.409 7.58569 259.096 0 240 0C220.904 0 202.591 7.58569 189.088 21.0883C175.586 34.5909 168 52.9044 168 72C167.973 87.1416 172.55 101.934 181.122 114.415C189.694 126.896 201.858 136.478 216 141.888V176.144C205.945 176.242 195.993 178.186 186.64 181.88C176.739 167.021 161.448 156.593 144 152.8V144C144 129.76 139.777 115.839 131.866 103.999C123.954 92.1586 112.709 82.9302 99.5532 77.4807C86.3969 72.0312 71.9201 70.6053 57.9535 73.3835C43.9869 76.1616 31.1577 83.0189 21.0883 93.0883C11.0189 103.158 4.1616 115.987 1.38346 129.953C-1.39467 143.92 0.0311656 158.397 5.48068 171.553C10.9302 184.709 20.1586 195.954 31.9989 203.866C43.8393 211.777 57.7597 216 72 216C87.5637 215.98 102.616 210.441 114.48 200.368C119.932 200.581 125.268 202.009 130.099 204.548C134.929 207.086 139.132 210.671 142.4 215.04C127.52 234.064 120 261.256 120 296V432H112.856C107.07 431.927 101.443 433.89 96.9577 437.546C92.4727 441.202 89.4153 446.318 88.32 452C87.7381 455.443 87.9143 458.971 88.8365 462.339C89.7586 465.706 91.4044 468.832 93.6591 471.498C95.9137 474.164 98.7229 476.306 101.891 477.774C105.058 479.243 108.508 480.002 112 480H208C210.122 480 212.157 479.157 213.657 477.657C215.157 476.157 216 474.122 216 472V456C216 453.878 216.843 451.843 218.343 450.343C219.843 448.843 221.878 448 224 448H256C258.122 448 260.157 448.843 261.657 450.343C263.157 451.843 264 453.878 264 456V472C264 474.122 264.843 476.157 266.343 477.657C267.843 479.157 269.878 480 272 480H368C371.492 480.002 374.942 479.243 378.109 477.774C381.277 476.306 384.086 474.164 386.341 471.498C388.596 468.832 390.241 465.706 391.164 462.339C392.086 458.971 392.262 455.443 391.68 452C390.585 446.318 387.527 441.202 383.042 437.546C378.557 433.89 372.93 431.927 367.144 432H360V296C360 271.472 360 248.216 345.312 223.752C355.763 205.281 369.755 189.054 386.488 176H408C427.096 176 445.409 168.414 458.912 154.912C472.414 141.409 480 123.096 480 104C480 84.9044 472.414 66.5909 458.912 53.0883C445.409 39.5857 427.096 32 408 32V32ZM447.112 64H368.888C379.324 53.7466 393.37 48.0014 408 48.0014C422.63 48.0014 436.676 53.7466 447.112 64V64ZM279.112 32H200.888C211.324 21.7466 225.37 16.0014 240 16.0014C254.63 16.0014 268.676 21.7466 279.112 32V32ZM111.112 104H32.888C43.3243 93.7466 57.3696 88.0014 72 88.0014C86.6304 88.0014 100.676 93.7466 111.112 104V104ZM408 160H384C382.42 160.002 380.876 160.47 379.56 161.344C358.538 176.988 341.248 197.1 328.936 220.232C328.255 221.509 327.934 222.947 328.005 224.392C328.077 225.838 328.54 227.237 329.344 228.44C344 250.4 344 271.544 344 296V432H312V448H367.144C369.137 447.926 371.095 448.543 372.687 449.745C374.278 450.948 375.406 452.662 375.88 454.6C376.085 455.751 376.034 456.934 375.733 458.063C375.431 459.193 374.885 460.243 374.134 461.139C373.383 462.036 372.444 462.756 371.385 463.25C370.325 463.745 369.169 464.001 368 464H280V456C280 449.635 277.471 443.53 272.971 439.029C268.47 434.529 262.365 432 256 432H224C217.635 432 211.53 434.529 207.029 439.029C202.529 443.53 200 449.635 200 456V464H112C110.831 464.001 109.675 463.745 108.615 463.25C107.556 462.756 106.617 462.036 105.866 461.139C105.115 460.243 104.569 459.193 104.267 458.063C103.966 456.934 103.915 455.751 104.12 454.6C104.594 452.662 105.722 450.948 107.313 449.745C108.905 448.543 110.863 447.926 112.856 448H168V432H136V296C136 262.568 143.384 237.464 157.936 221.368C158.984 220.208 159.669 218.766 159.907 217.22C160.144 215.675 159.924 214.093 159.272 212.672C147.936 187.872 122.472 185.104 112.872 184.048C111.773 183.932 110.662 184.043 109.608 184.375C108.553 184.706 107.579 185.251 106.744 185.976C97.3708 194.904 84.9445 199.92 72 200C62.5465 200.021 53.2422 197.644 44.9579 193.09C36.6737 188.536 29.6804 181.954 24.6327 173.961C19.5851 165.968 16.6481 156.824 16.0967 147.387C15.5453 137.95 17.3975 128.527 21.48 120H122.52C126.116 127.49 127.988 135.691 128 144V160C127.999 162.074 128.803 164.068 130.243 165.56C131.684 167.053 133.647 167.927 135.72 168C151.336 168.552 164.952 177.856 177.32 196.448C178.426 198.108 180.112 199.295 182.048 199.776C183.984 200.257 186.03 199.997 187.784 199.048C199.02 193.536 211.517 191.103 224 192C226.122 192 228.157 191.157 229.657 189.657C231.157 188.157 232 186.122 232 184V136C232.001 134.225 231.413 132.501 230.326 131.097C229.24 129.694 227.718 128.692 226 128.248C213.883 124.633 203.254 117.209 195.688 107.077C188.123 96.945 184.024 84.6448 184 72C184.012 63.6912 185.884 55.4905 189.48 48H290.52C294.116 55.4905 295.988 63.6912 296 72C295.976 84.6448 291.877 96.945 284.312 107.077C276.746 117.209 266.117 124.633 254 128.248C252.282 128.692 250.76 129.694 249.674 131.097C248.587 132.501 247.999 134.225 248 136V185.232C247.999 187.162 248.695 189.028 249.961 190.485C251.227 191.942 252.977 192.892 254.888 193.16C270.774 195.101 286.191 199.841 300.424 207.16C302.168 208.031 304.17 208.236 306.054 207.735C307.938 207.234 309.575 206.062 310.656 204.44C325.89 183.736 344.194 165.478 364.936 150.296C365.764 149.647 366.456 148.84 366.971 147.923C367.487 147.006 367.817 145.996 367.942 144.951C368.067 143.906 367.984 142.847 367.699 141.834C367.414 140.821 366.932 139.874 366.28 139.048C357.837 129.228 352.824 116.924 352 104C352.012 95.6912 353.884 87.4905 357.48 80H458.52C462.602 88.5266 464.455 97.9496 463.903 107.387C463.352 116.824 460.415 125.968 455.367 133.961C450.32 141.954 443.326 148.536 435.042 153.09C426.758 157.644 417.453 160.021 408 160V160Z" fill="#97A8FF"/>
</svg>
